# xmcd
#
# Track frame offsets:
#  150
#  5986
#  21358
#  48602
#  78061
#  83419
#  110542
#  134649
#  158093
#  177940
#  183541
#  205064
#  213083
#  230789
#  235623
#  260753
#  265948
#
# Disc length: 3886 seconds
#
# Revision: 1
# Processed by: cddbd v1.5.1PL2 Copyright (c) Steve Scherf et al.
# Submitted via: Collectorz.com_Music_Collector 6.10
#
DISCID=e80f2c11
DTITLE=Bruce Springsteen - Devils and Dust Tour - May 11 2005 - Illionois [CD2)
DYEAR=2005
DGENRE=Rock
TTITLE0=Paradise
TTITLE1=The Rising
TTITLE2=Further On Up The Road
TTITLE3=Talk: Jesus Is My Homeboy
TTITLE4=Jesus Was An Only Son
TTITLE5=Talk: Roy Orbison Story
TTITLE6=Leah
TTITLE7=Talk: Wrong Side Of The Equation
TTITLE8=The Hitter
TTITLE9=Talk: We Need A Real Immigration Policy
TTITLE10=Matamoros Banks
TTITLE11=Encore Break
TTITLE12=I'm On Fire
TTITLE13=Land Of Hope And Dreams
TTITLE14=The Promised Land
TTITLE15=Encore Break
TTITLE16=Dream Baby Dream
EXTD=
EXTT0=
EXTT1=
EXTT2=
EXTT3=
EXTT4=
EXTT5=
EXTT6=
EXTT7=
EXTT8=
EXTT9=
EXTT10=
EXTT11=
EXTT12=
EXTT13=
EXTT14=
EXTT15=
EXTT16=
PLAYORDER=
